<?xml version="1.0" encoding="utf-8"?>
<!-- Generator: Adobe Illustrator 22.0.0, SVG Export Plug-In . SVG Version: 6.00 Build 0)  -->
<svg version="1.1" id="图层_1" xmlns="http://www.w3.org/2000/svg" xmlns:xlink="http://www.w3.org/1999/xlink" x="0px" y="0px"
	 viewBox="0 0 400 400" style="enable-background:new 0 0 400 400;" xml:space="preserve">
<style type="text/css">
	.st0{fill:#FFFFFF;}
</style>
<g>
	
	<path d="M243.1,30.2c4.9,0,9.2,0,14,0c0.3,6.4,0.9,12.6,0.9,18.9c0,6.3,7.3,11,13.2,8.8c7.5-2.9,15.4-4.9,23.1-7.3
		c1.6-0.5,3.2-1,4.6-1.8c5.3-3,8.4-2.8,12.3,1.6c1.6,1.8,3.5,5.2,2.7,6.7c-1.2,2.4-4.2,4.7-6.9,5.5c-4.9,1.3-10.2,1.1-15.1,2.2
		c-5.6,1.3-11,3.6-16.6,5.2c-3.5,1-7.1,1.6-10.6,2.3c-3.4,0.6-6.7,2-6.3,5.8c0.3,3.7,1.6,7.7,6.2,8.7c1.4,0.3,3.1,0.4,4.4-0.1
		c7.5-2.5,14.9-5.3,22.4-7.9c1.5-0.5,3.2-1.3,4.7-1.1c6.8,1,9.7,3.4,9.6,8c0,6.2-5.3,6.2-9.3,7.1c-4,0.8-8.5-0.1-12.3,1.1
		c-6.9,2.3-13.4,5.6-20,8.6c-0.3,0.1-0.5,0.4-0.8,0.6c-2.1,1-5.9,1.7-6.1,3c-0.5,3.1,0.4,6.5,1.2,9.7c0.3,1.1,2.1,2.4,3.2,2.5
		c3.6,0.1,7.4,0.2,10.8-0.8c8.3-2.4,16.3-5.4,24.5-8.2c5.5-1.9,11.9-0.3,14,4.2c0.8,1.6,0.3,4.3-0.4,6.1c-0.5,1.3-2.4,2.3-3.8,3
		c-8.3,4.2-17.3,5.8-26.5,6.7c-4.8,0.5-9.4,3-14.1,4.6c-1.7,0.6-3.4,1.4-5.1,1.6c-5.1,0.8-7.1,4.4-5.6,9.3c0.7,2.5,0.4,5.3,0.4,7.9
		c-0.1,4.1-0.8,8.3-0.6,12.4c0.2,3.5,5.9,6,11.1,5.1c3.1-0.5,6.1-1.4,9.2-2.1c3.7-0.8,6-2.5,8.1-6.2c2-3.4,6.8-5.3,10.7-7.2
		c0.4-0.2,3.9,3.2,4,5.1c0.7,9.7,1.3,19.5,1,29.2c-0.2,5.8-2,11.7-3.6,17.4c-0.5,1.8-2.7,3.4-4.5,4.4c-8.6,4.5-10.4,12.6-10.9,21
		c-0.7,10.9-1.1,13.2,12.3,18.9c8.9,3.8,14.4,10.4,15.6,20.3c0.6,5.6-4.6,15.2-10.2,17.1c-5.4,1.9-11.2,3.3-16.9,3.5
		c-9.4,0.4-14.9,5.3-14.7,14.5c0.1,4.1,7.6,8.8,13.3,9.5c6.5,0.7,13.1,1.8,19.2,4c9.5,3.4,14,11.4,17.9,20.6
		c3.3,7.8,4.5,15.2,4.4,23.4c0,4.4-3.3,5.3-5.8,6.6c-2.1,1.1-5.1,1-6.2-2.6c-1.4-4.3-4-8.3-4.8-12.7c-2-10.5-6.6-19.1-16.3-24.3
		c-1.5-0.8-3.5-0.9-5.2-1.3c-6.4-1.6-13.1-2.6-19.3-4.9c-6.6-2.5-9.4-8.7-10.3-15.4c-0.6-4.1-1.8-8.8-0.3-12.3
		c2-4.7,5.4-9.8,9.7-12.3c7.3-4.4,15.7-6.8,23.5-10.3c2.2-1,3.9-2.8,5.9-4.3c-1.7-2.3-3.1-5.1-5.3-6.8c-2.4-1.9-5.6-2.7-8.4-4.1
		c-6.7-3.4-8.9-9.4-9.4-16.4c-0.4-5.9-0.7-11.9-1.1-17.8c-0.2-2.8-1.8-5.2-4.8-4.3c-3.5,1-8.8,0.1-9.4,5.6
		c-0.8,6.7-0.9,13.5-1.7,20.2c-0.6,4.7-1.5,9.4-3.1,13.8c-0.9,2.3-3.3,4.4-5.6,5.7c-5,2.7-8.1,6.3-8.9,12.2
		c-0.7,4.9-2.4,9.6-3.7,14.4c-0.2,0.8-0.8,2-0.5,2.4c4.4,4.8,0.2,10.1,0.7,15.1c0.5,5.2-0.3,10.6-1.1,15.8
		c-0.9,6.7-2.1,13.3-3.6,19.9c-1,4.4-5.2,7.6-8.6,6.8c-4.6-1.1-6-4.5-5.3-8.8c0.7-4.4,1.8-8.7,2.5-13.1c0.6-4.1,0.8-8.2,1.3-12.3
		c0.6-5.4,1.8-10.8,1.8-16.2c0-5.7-1.2-11.4-1.8-17.1c-0.5-4.8-1.1-9.5,3.1-13.5c2.2-2.1,3-5.5,4.9-7.9c4-5.2,8.6-10.1,12.4-15.4
		c4.9-6.9,5.4-14.5,2.2-22.2c-2.1-5.1-6.3-8.3-11.3-8.8c-7-0.6-10-5.6-12.3-10.3c-3.7-7.8-3.6-16.5-2.9-25.1
		c0.2-1.9-0.6-3.9-0.5-5.9c0.2-4.4,0.4-8.8,1-13.2c0.1-0.7,2.7-1.8,3.5-1.4c4.7,2.4,10.6,3.1,13.2,9c0.6,1.4,3.6,2.4,5.5,2.6
		c3.2,0.4,6.4,0,9.6-0.2c0.7,0,1.9-0.5,2-1c0.2-0.9,0-2.2-0.5-2.7c-3.9-3.3-3-7.6-3.3-11.9c-0.3-3.7-1.4-7.4-2.9-10.8
		c-1.4-3-4.1-4.1-7.6-2.5c-5.7,2.6-11.5,5-17.3,7.5c-3.4,1.5-6.8,2.2-9.8-0.6c-5.2-5-4.5-8.6,2-11.9c4.4-2.2,8.9-4.5,13.4-6.5
		c1.9-0.8,4.1-1.3,6.2-1.3c9.4,0,15.1-5.9,14.8-15.3c-0.1-3.7-1.8-5.5-5.3-4.6c-4.6,1.2-9.1,2.9-13.7,4.5c-2.7,0.9-5.2,2.4-7.9,3.1
		c-4.1,1.2-8.5-1.7-9.6-5.9c-1-3.8,1.2-7.4,5.6-8.5c6.8-1.8,13.7-3.4,20.5-5.4c3.6-1.1,8.7-1.9,10.1-4.5c2-3.6,2.3-9.1,1-13
		c-1.1-3.4-5.2-1.2-8.2,0c-9.3,3.7-18.8,6.9-28.9,6c-2.5-0.2-6.1-3.5-6.7-6c-0.4-1.8,2.8-5.7,5.2-6.6c6.5-2.4,13.5-3.8,20.2-5.6
		c5.7-1.5,11.5-2.7,16.9-4.9c1.7-0.7,3.4-4,3.3-6.1c-0.2-7.3-1.1-14.5-1.7-21.8C242.6,33.9,242.9,32.3,243.1,30.2z M264.3,202.8
		c0.1,0.4,0.3,0.8,0.4,1.3c5.2-2.4,11-3.9,15.3-7.4c2.4-1.9,3.2-7,2.8-10.4c-0.2-1.7-4.9-3.5-7.7-3.9c-3.1-0.5-6.5,0.6-9.8,1
		c-5.7,0.7-11.6,2.7-17,1.8c-5.9-1-11.3-1.2-17.1,0.4c-4.3,1.2-6.5,2.9-5.9,7.5c0.8,5.6,3.8,9.6,8.2,9.6
		C243.8,202.9,254,202.8,264.3,202.8z"/>
	<path d="M143.6,239.2c-1.9,6.6-3.4,13.4-5.8,19.8c-0.8,2.2-3.5,3.9-5.6,5.4c-9.1,6.1-16,13.4-15.5,25.3c0.2,4.6,0.9,9.2,0.3,13.7
		c-1,7.2-2.8,14.3-4.3,21.4c-1.6,7.7-3.3,15.5-4.8,23.2c-0.8,3.9-7.3,10.6-11.2,11.1c-6.6,0.8-10.9-5.8-7.2-12.4
		c6.7-11.7,8.3-24.6,9.9-37.4c1.5-11.3,2-22.7,3.6-34c0.9-6.5,2.6-12.6,9.9-16.1c7.2-3.4,12.9-9.1,16.3-16.7
		c3.3-7.3-0.2-19.4-6.2-24.8c-9.3-8.5-11.9-10.5-7.9-24.6c0.2-0.6,0.6-1.5,0.4-1.9c-3.6-5.5,0.4-10.9,0.2-16.4c-0.2-6.4,3-8,8.9-5.7
		c6.6,2.6,12.7,6.1,20.9,3.4c7-2.3,15-1.8,22.6-2.3c3.1-0.2,5-1,5.7-4.3c0.5-2.4,1.4-5,2.9-6.8c1.7-2.1,4.7-5.4,6.4-5
		c2.9,0.7,6.2,3.4,7.5,6.1c1.4,3.1,0.7,7.1,0.8,10.7c0.2,6.3,0.9,12.7,0.3,18.9c-0.8,7.3-2.2,14.8-4.5,21.8
		c-2.1,6.3-8.4,8.5-14.2,10.8c-2,0.8-5.5,1.7-5.6,2.8c-0.4,3.6-0.7,8.2,1.1,10.9c3,4.3,7.9,7.3,11.7,11.1c4.6,4.7,9.4,9.4,13.1,14.8
		c1.1,1.6-1,5.5-1.9,8.2c-0.9,3-2,6-3.3,8.8c-0.6,1.3-1.6,2.8-2.7,3.3c-7.6,3.3-13.8,10.2-23.3,9c-1-0.1-3.4,2.8-3.2,4
		c0.4,2.5,1.7,5.3,3.6,6.8c1.5,1.2,4.4,0.8,6.7,0.8c9.7,0,18.6,3.3,26.9,7.8c2.5,1.3,4.7,4.8,5.3,7.6c1.7,7.9,2.7,15.9,3.3,24
		c0.2,2.4-1.7,5.4-3.5,7.5c-3.3,3.9-8.4,1.8-9.8-3.9c-0.8-3.4-0.5-7.1-1.7-10.3c-2.2-5.6-5.1-11.1-8.2-16.3
		c-0.7-1.2-3.6-1.8-5.4-1.6c-9,0.8-16.9-2-24.4-6.7c-5.6-3.4-9.2-13.7-7.6-21.5c1.3-6.5,5.6-9.5,13.3-11.5
		c5.4-1.4,11.3-2.8,15.2-7.7c4-5,2.7-13.1-3.1-15.2c-7.8-2.8-10.5-9.1-12.9-15.9c-1.4-4.1-2.7-8.3-4.5-12.1c-1.8-3.8-5.2-4-7.1-0.2
		c-1.8,3.6-2.4,7.7-3.6,11.5C142.1,238.7,142.8,238.9,143.6,239.2z M144.8,207.4c4.1-0.2,8.4,0.1,12.4-0.8
		c5.3-1.2,11.4-0.1,15.4-5.5c2.1-2.9,5.5-5.7,3.1-9.1c-1.6-2.3-5.5-4.4-8.2-4.3c-10.4,0.4-20.5-3.4-31.1-0.4
		c-7.6,2.1-10.4,5.9-6.9,13.2C132.6,207.2,138.5,207.6,144.8,207.4z"/>
	<path d="M140.3,42.2c-0.8-6.3,0.7-9.1,4.6-9.3c6.6-0.3,10.7,3.1,10.8,9.1c0,2.5-0.2,5-0.6,7.4c-0.7,5.3,1.1,7.2,6.2,5.6
		c5.2-1.5,10.4-3.3,15.3-5.5c6.8-3,14.2-1,17,5.7c0.7,1.6-0.5,5.4-2,6.1c-4.7,2.5-9.9,4.3-15,6.1c-6.5,2.4-13.2,4.4-19.7,7
		c-4.1,1.7-6.8,8.6-5.3,11.7c2,4,7.2,5.7,12.1,4.1c5.8-2,11.7-3.9,17.5-5.9c3.6-1.3,6.7-0.5,8.7,2.7c2.1,3.4,0.1,6.1-2.5,8.2
		c-1.2,1.1-2.7,1.9-4.3,2.5c-7.7,3-15.4,5.9-23.1,8.9c-1.2,0.5-2.5,1-3.6,1.7c-3.2,1.8-7.1,3.6-4.6,8.3c2.6,4.9,7,5.9,11.8,3.2
		c4.9-2.8,9.9-5.4,14.9-8.2c5.9-3.3,9.3-0.6,12.8,4.6c2.6,3.9,0.2,7.8-5.5,10.1c-11,4.5-21.9,9.1-32.8,13.7c-3.6,1.6-2.9,3.5-2,7.3
		c1.3,5.5,0,11.9-1.6,17.5c-0.8,2.9-8.3,2.3-9.9-0.8c-1.8-3.5-3.1-7.3-4-11.1c-0.9-3.8-2.2-5-5.7-3.3c-4,2-7.8,4.5-11.9,6.4
		c-8.1,3.7-16.2,7.2-24.4,10.5c-6.8,2.8-11.2-0.5-10.6-7.6c0.1-1.2,0.9-2.9,2-3.5c6.8-3.8,13.6-7.6,20.6-10.9
		c7.6-3.6,15.6-6.6,23.3-10c3.6-1.6,4.2-4.7,2.9-8c-1.4-3.5-3.8-6.1-8.1-4.7c-3.9,1.3-7.7,3.1-11.7,4.4c-3.1,1-6.5,2.5-9.6,2.1
		c-2.7-0.3-6.3-2.3-7.3-4.5c-0.8-1.8,1.2-6.3,3.2-7.4c8.1-4.3,15.6-10,25.2-11c8-0.9,12.8-7.1,12.4-15.2c-0.2-3.4-1.5-5-4.9-4.6
		c-2.5,0.3-5.1,0.2-7.4,0.9c-7.7,2.4-15.4,4.9-23.1,7.6c-5.2,1.8-10.3,2.6-15.4-0.1c-3.1-1.7-3.3-8.7-0.1-10.1
		c3.8-1.7,7.8-2.9,11.6-4.4c8.3-3.2,16.5-6.7,25-9.6c10.6-3.5,14.1-12.6,17.8-21.6C140.4,46.7,140.1,44.3,140.3,42.2z"/>
	<path d="M214.9,60.4c-2.1,1.8-3.3,2.9-4.5,3.9c-0.9-1.1-2.6-2.2-2.6-3.3c0-1.1,1.5-3,2.6-3.2C211.3,57.6,212.7,59.1,214.9,60.4z"/>
	
	
</g>
</svg>
