<svg enable-background="new 0 0 400 400" viewBox="0 0 400 400" xmlns="http://www.w3.org/2000/svg"><g fill="#010102"><path d="m246.1 174.8c-5.4 0-10.8.3-16.1-.2-1.8-.2-3.4-2.6-5.1-4 1.6-1.7 3-4.5 4.9-4.9 3.6-.8 7.4-.2 11.1-.1 5.2.1 7-1.8 7-7-.1-17.7-.3-35.4-.3-53.1 0-9.2.3-18.4.7-27.6.1-1.7 1.4-4.7 2.4-4.8 2.1-.2 4.8.6 6.4 1.9 1.3 1.2 1.9 3.7 1.9 5.7.1 10.7-.1 21.3-.2 32v.5c-.4 9.9-.4 10 9.4 9.9 6.9-.1 13.8-.4 20.7-.6 3.9-.1 6.4 1.5 6.4 5.6 0 4.3-3 6.1-6.7 6.2-7.4.2-14.8 0-22.3-.1-8.5-.2-9.2.9-8.1 9.6.6 4.7.2 9.7-.5 14.4-.7 4.9 1 7.1 5.9 7.7 6.6.9 13.3 1.8 19.5 4 2.8 1 4.4 5.3 6.9 7.7 4.3 4.1 3.8 9.5 4.1 14.6.7 12.4-.1 24.7-7.9 35-3.9 5.2-9.6 9.1-14.7 13.4-5.3 4.4-5.5 4.8-3 11.4 1.1 2.9 1.4 6 2.1 9 1.1 4.9 2.2 9.7 3.1 14.6.4 2 0 4.2.3 6.2.9 5.5 2 11 3 16.5.3 1.6 1.1 3 1.3 4.6.8 5.7 1.3 11.5 2.4 17.2 1 5.1 1.3 10-1.6 14.6-.6 1-1.6 1.8-2.4 2.7-.9-.8-2.1-1.5-2.5-2.5-3.3-7.3-6.7-14.6-7.2-22.9-.4-6-2.6-11.9-3.5-18-.7-4.8-.3-9.7-.9-14.5-1.2-9-2.7-17.9-4.3-26.8-.8-4.7-3.7-5.5-8.3-3.8-5.6 2-11.4 3.4-17.3 4.5-3 .6-5.4-1.1-5.4-4.7 0-3.4 1.6-4.7 5.3-5.5 7.2-1.5 14.2-4 21.2-6.5.8-.3 1.1-3.5.8-5.2-.5-2.7-2.2-5.2-2.5-7.9-.7-6.7-4.2-13.1-12.9-11.4-5.3 1.1-7.7-2.7-10-6.1-1.8-2.7.8-5.2 5.8-5.4 3.5-.2 7 .6 10.4.3 5-.5 7.9 2.3 10.3 5.8 3.8 5.8 6.7 11.9 7.1 19.1.3 5.7 2.1 6.4 6.6 3.2 4.9-3.6 7.4-8.9 10.2-14.1 3.5-6.5 2.9-13 3.5-19.7 1.1-12.2-6-16.9-16-19.1-6.9-1.5-14.1-1.3-21.2-1.9.2.2.2.3.2.5z"/><path d="m187.5 152.7c1.4-1.8 2.3-3.7 3.9-4.6 2.3-1.4 4.9-2.8 7.4-2.9 4.8-.4 9.3-4.2 9.1-9.1-.1-3.8-2.2-6-6.1-6-2.4 0-5 .8-7.2.1-2-.6-4-2.4-5-4.2-.4-.7 1.8-3.5 3.3-4.3 1.9-.9 4.5-1.5 6.5-.9 5.2 1.5 6.9-2.2 8.3-5.4 1.6-3.5.5-7.2-2.8-9.5-1.1-.8-3.4-.5-4.9 0-3.8 1.2-8.4 0-9.9-3.5-.7-1.5-.7-4 .1-5.4.6-1 3.1-1.6 4.6-1.3 10.1 1.7 12 .3 13.5-9.7.4-2.6.9-5.1 1.9-7.5.4-1 2.1-1.9 3.2-2.1.9-.1 2.7.8 2.9 1.6.9 2.7 1.9 5.6 1.9 8.5.1 10.5.1 21.1-.2 31.7-.2 6.1-1.2 12.2-1.8 18.4-.2 1.9-.5 3.9-.3 5.8.6 7.3-3.2 11.4-10.5 12.6-5.9.9-11.4 1.5-17-1.1-1.1-.5-2.8.1-4.2.4-7.1 1.2-11.3-.8-14.4-6.8-2.9-5.5-5.2-6.2-8.8-1.2-5.5 7.7-12.8 9.1-21.3 8.8-5.3-.2-10.7.3-16 .4-4 .1-7.4-5.3-9.5-11.2-5.1-15.3-2.5-30.9-3.1-46.4-.2-5.6-.8-11.4 2.9-16.3 1-1.4 2.4-2.5 3.6-3.8 1.6 1.6 3.4 3.1 4.8 4.8.4.5.1 1.6.1 2.4-.3 9.3 3.6 12.5 12.8 10.8 1.9-.3 4.4.3 6 1.3 2.4 1.5.8 6.5-2.3 7.3-3.6.9-7.3 1.6-10.9 2.2-4.4.7-6.5 3.2-6.1 7.6.4 4.3 2.7 6.5 7.3 5.7 4.3-.7 7.6 0 10.5 3.1.8.9 2.1 2.4 1.8 3-.5 1.1-1.9 2.2-3.1 2.5-3.5.8-7.1.9-10.5 1.8-1.8.5-4.5 1.8-4.8 3.1-.5 2.7-.7 6.7.8 8.2 2.7 2.6 6.8 3.9 10.5 5.3 7.5 2.9 12.3.6 17.2-6.4 3.3-4.7 3.4-6.9.1-10.5-2.1-2.3-4-4.7-6.2-6.8-3.8-3.8-4.4-8.1-1-12.1 2.5-2.9 5.5-5.4 8.4-7.9 2.7-2.2 2.7-5.2-.3-8.3s-6.1-6.2-8.7-9.7c-1.6-2.3-4.7-6-1.1-7.9 2.6-1.3 7.1 0 10.2 1.4 2.4 1.1 3.9 4.2 5.7 6.4 4.2 5.2 6.6 4.8 11.1 0 3.3-3.5 6.2-8.4 11.9-8.6 4.8-.2 6.8 2.6 4.3 6.8-2.2 3.7-5.5 6.8-8.6 9.7-5.5 5.1-5.3 7.8 1.2 11.3 8.6 4.6 10 13.1 3.2 19.9-2.4 2.4-5 4.6-7.2 7.2-2 2.3-2.9 5.1.6 6.9 5.3 2.7 8.2 7.1 10.1 12.4.6.3 1.1.7 2.1 2zm-19.7-28.6c1.6-2 6.2-5.5 5.7-7.8-.8-3.4-4.8-6.7-8.2-8.7-2.4-1.4-10.2 5.6-10.1 8.1 0 3.1 6.9 8.5 12.6 8.4z"/><path d="m194.9 243.2c-1.9 9.5-3 18.8-9 26.3-2 2.5-5.6 4.3-8.8 5.2-2.8.8-4.4 1.8-4.6 4.6-1 12.6-1.8 25.1-3 37.7-.7 7.3 1.2 14.8-2.5 21.8-1.7 3.3-4.4 3.5-6.9 2.3-1.2-.6-2-3.3-2.1-5.1-.1-7.1-.3-14.2.3-21.2.6-7.7 1.7-15.4 3.2-23 1.2-6.1-.3-9.3-6.4-9.7-8.1-.5-15.8-7.8-16.8-15-1.5-11.2-3-22.4-3.9-33.7-.2-2.6 1.1-5.8 2.7-8 1.9-2.7 4.8-2.5 5.9 1 1 3.2 1.4 6.5 1.8 9.9.5 5.8.9 11.6 1.2 17.4.3 6.7 3.3 12.1 8.3 16.3 1.2 1 3.8 1.3 5.3.7 1.2-.5 2.1-2.8 2.2-4.4.5-11.5.8-22.9.9-34.4 0-1.6-1.4-3.6-2.7-4.7-3.6-3-7.5-5.6-11.2-8.4-12.6-9.4-7.1-22.7 3.4-30 10.4-7.2 20.2-2.2 30.2-3.2 4 4.5 9.3 8.4 11.6 13.6 4.6 10.5 2 15.7-8.7 21.9-3.4 2-7 4-10.2 6.3-1.2.9-2.1 2.8-2.2 4.3-.3 7.8-.2 15.5-.3 23.3 0 .6-.1 1.3 0 1.9.4 2.6-.3 6.1 3.7 6.3 4.3.2 4.6-3.1 5-6.3.9-7.8 1.7-15.7 3-23.5.3-1.9 2.7-3.5 4.1-5.2 1.7 1.8 4.2 3.4 5 5.6 1.2 3.1 1.1 6.5 1.5 9.4zm-25.6-25c.1-.6.2-1.3.3-1.9 6.6 2.1 10.4-2.1 13.6-6.3 1.2-1.6 1.4-5.2.4-7-5.7-10.1-20.6-9.4-27.9-3.8-3.8 2.9-3.8 11.5-.1 13.4 4.4 2.3 9.1 3.8 13.7 5.6z"/><path d="m123.6 229.5c0 7.8.2 15.5-.1 23.3-.1 3.6-.3 8-5.7 8-3.4 0-6.5-4.7-6.5-9.3 0-4.9-.2-9.8.2-14.6.3-3.6 2.1-7 2.3-10.5.7-9.7.2-19.5 1.6-29.1 1.3-9.1 2.6-18.7 10.6-25.3 1.2-1 2.4-2.3 3.8-2.6 8.9-1.6 17.7-3.9 26.7-4.3 11.5-.6 23.1-.1 34.5.8 11.2.8 22.3 11.6 25 22.8 4.6 18.8 5.1 37.8 3.3 56.9-.2 1.9-.3 4 .3 5.8 1.6 4.4-.9 7.5-3.1 10.7-.4.6-3.3.6-3.5.2-1.7-3.8-4-7.6-4.3-11.6-1.2-14-1.6-28.1-2.4-42.1-.2-4 0-8.1-.7-12.1-.5-2.9-2.1-5.5-3.1-8.3-1.3-3.6-2.5-7.2-6.6-8.7-3.4-1.2-6.7-3-10.1-3.5-5.8-.8-11.7-1.1-17.5-.8-10.3.7-20.7 1.4-30.8 3.3-6.2 1.2-9.3 6.9-10.3 13-2.1 12.6-3.8 25.2-5.6 37.8.7.1 1.4.2 2 .2z"/></g><path d="m385.2 377.6.6-.7c.6.4 1.3.9 1.9 1.5l-.6.7c-.8-.5-1.4-1-1.9-1.5zm.3 7.1c.6-1.4 1.1-2.9 1.5-4.5.3.1.6.3.9.4-.5 1.4-1 2.9-1.5 4.4zm.2-10.1.6-.6c.7.5 1.3 1.1 1.9 1.6l-.7.7c-.6-.6-1.2-1.2-1.8-1.7zm8.4-.8h.8v.9h1.8v.7h-1.8v1.8h-.8v-.3h-1.2v.9h3.3v2.6h-.8v-.4h-2.5c0 .3 0 .6-.1.8h3.4v.7h-3.5c0 .3-.1.6-.1.8h4v.7h-3.5c.7.9 1.9 1.3 3.6 1.5-.2.2-.4.5-.6.9-1.9-.3-3.2-1.1-3.8-2.3-.5 1.1-1.8 2-3.9 2.4-.2-.3-.4-.5-.6-.8 1.9-.4 3.1-.9 3.6-1.7h-3.2v-.7h3.5c.1-.2.1-.5.2-.8h-3.3v-.7h3.4c0-.2 0-.5 0-.8h-2.4v.3h-.8v-2.6h3.3v-.9h-1.2v.3h-.8v-1.8h-1.8v-.7h1.8v-.9h.8v.9h3.2zm-4.4 5.5h2.4c0-.3 0-.6 0-.9h-2.4zm1.2-3.1h3.2v-.8h-3.2zm4.4 2.2h-2.4v.9h2.5v-.9z" fill="#fcfbfa"/><path d="m389.2 385.8h.9v1.5h1.9v-1.5h.9v1.5h2.7v6h1.1v.9h-11.3v-.9h1.1v-6h2.7zm.2 8.7.5.8c-1.2.6-2.5 1.3-4 1.9-.2-.3-.3-.6-.6-.8 1.6-.6 3-1.3 4.1-1.9zm-2-4.3h1.9v-2.1h-1.9zm0 3.1h1.9v-2.2h-1.9zm2.7-3.1h1.9v-2.1h-1.9zm0 3.1h1.9v-2.2h-1.9zm2.4 1.3c1.4.6 2.7 1.2 4.1 1.8l-.5.9c-1.5-.7-2.8-1.4-4.1-1.9zm2.2-6.5h-1.9v2.1h1.9zm-1.9 5.2h1.9v-2.2h-1.9z" fill="#fcfbfa"/></svg>