<svg enable-background="new 0 0 400 400" viewBox="0 0 400 400" xmlns="http://www.w3.org/2000/svg"><g fill="#010100"><path d="m180.48 163.06h68.99c0-45.46 0-90.52 0-136.27 10.92 4.52 21.83 9.03 33.54 13.88-3.72 3.39-7.12 6.22-10.18 9.38-1.25 1.29-2.52 3.27-2.54 4.96-.19 14.83-.1 29.66-.08 44.5 0 .63.2 1.26.39 2.44h24.45c3 0 6.08-.45 8.98.08 11.15 2.05 19.16-2.32 25.15-11.45.96-1.47 2.38-2.64 3.14-3.46 8.46 8.44 16.63 16.59 24.9 24.84-28.63 0-57.52 0-86.73 0v50.84c1.52.07 3.1.2 4.69.2 13 .02 26-.13 39 .1 3.63.07 5.79-1.13 7.67-4.13 2.46-3.91 5.42-7.5 8.39-11.53 8.19 7.21 16.01 14.1 24.02 21.16-.82.76-1.32 1.53-2.02 1.83-8.94 3.8-12.13 11.38-14.89 20.13-9.01 28.64-20.8 56.12-37.44 81.27-5.41 8.17-11.53 15.86-17.7 24.28 24.94 28.96 54.35 51.41 93.63 58.05 1.37 3.18-.25 4.16-2.87 5-4.57 1.46-9.35 2.72-13.45 5.09-4.61 2.67-8.56 6.48-13.62 10.45-30.55-14.91-56.2-37.89-78.16-65.94-5.47 4.68-10.64 9.28-16 13.66-30.91 25.26-66.41 41.35-104.49 52.32-4.27 1.23-4.68-1.61-5.94-4.64 42.46-19.33 82.61-42.15 114.88-77.25-24.59-34.96-40.28-73.49-49.59-114.89-.8 0-1.47-.16-2.02.02-5.48 1.82-9.3-.61-12.91-4.49-3.18-3.42-6.8-6.38-11.19-10.43zm136.73 10.37c-34.48 0-68.15 0-102.45 0 14.29 37.2 27.77 74.13 54.05 105.24 26.01-31.08 41.61-65.87 48.4-105.24z"/><path d="m30.23 355c-.63-.77-1.18-1.37-1.65-2.02-.77-1.07-1.5-2.18-2.15-3.14 12.17-11.59 24.44-22.82 36.18-34.59 13.65-13.68 26.21-28.32 36.7-44.66 2.03-3.16 1.91-5.11-.96-7.51-16.44-13.79-32.78-27.71-49.17-41.58-1.75-1.48-3.55-2.91-5.55-4.54 1.4-1.49 2.51-2.66 3.83-4.07 22.44 11.12 44.03 23.42 63.68 38.86 7.72-6.88 20.94-32.32 31.43-60.48 9.06 6.03 18.05 12.02 27.02 18.02.63.42 1.16 1.01 1.59 1.39-.11.54-.11.83-.17.84-10.94 2.09-15.83 10.37-21.03 19.11-7.04 11.83-15.31 22.92-23.29 34.67 5.41 4.16 11.7 8.25 17.07 13.31 6.97 6.59 13.97 13.4 19.57 21.12 7.31 10.09 6.79 22.94.35 31.82-4.27 5.88-8.44 6.1-12.68.22-2.31-3.2-3.57-7.15-5.85-10.37-9.69-13.68-19.58-27.21-29.42-40.78-.26-.36-.82-.5-1.48-.88-23.56 29.98-51.4 55.15-84.02 75.26z"/><path d="m101.57 109.15c-19.16-17.94-40.7-32.69-61.88-47.8 2.87-6.23 3-6.4 8.61-3.37 21.63 11.67 43.19 23.45 65.62 35.65 12.05-16.97 23.4-35.66 28.56-58.31 10.83 7.05 21.46 13.97 32.2 20.97-.57.48-.79.82-1.07.88-10.74 2.4-16.85 10.3-22.78 18.68-7.48 10.59-15.37 20.89-23.17 31.42 8.35 5.64 16.71 10.72 24.43 16.64 8.44 6.46 16.92 13.29 19.45 24.47 1.95 8.6-.28 16.52-5.4 23.53-2.86 3.91-5.88 4.22-9.15.7-2.78-3-5.14-6.54-7.07-10.16-8.35-15.67-19.55-28.88-33.9-40.41-22.88 27.9-51.1 49.18-82.38 66.61-2.66-3.43-1.49-5.54 1.37-8.07 23.1-20.45 45.1-41.98 63.48-66.93.98-1.35 1.88-2.74 3.08-4.5z"/></g><path d="m378.6 9.2.8-1c.9.7 1.9 1.4 2.9 2.3l-.9 1.1c-1.1-.9-2-1.7-2.8-2.4zm.5 10.7c.9-2.1 1.6-4.3 2.3-6.7.4.2.8.4 1.3.6-.7 2.1-1.5 4.3-2.2 6.6zm.4-15.2.9-.9c1 .8 2 1.6 2.8 2.4l-1 1c-1-.9-1.9-1.8-2.7-2.5zm12.5-1.3h1.2v1.4h2.7v1.1h-2.7v2.7h-1.2v-.5h-1.8v1.3h4.9v3.8h-1.2v-.5h-3.7c0 .4-.1.9-.1 1.2h5.1v1h-5.2c0 .5-.1.9-.2 1.2h6v1h-5.2c1.1 1.3 2.9 2 5.5 2.2-.4.4-.7.8-.9 1.3-2.9-.5-4.8-1.6-5.7-3.5h-.1c-.8 1.7-2.7 2.9-5.9 3.6-.2-.4-.6-.8-.9-1.1 2.8-.6 4.6-1.4 5.4-2.5h-4.8v-1h5.3c.1-.3.2-.7.2-1.2h-4.9v-1h5c0-.4 0-.8.1-1.2h-3.6v.5h-1.2v-3.8h4.9v-1.3h-1.8v.5h-1.2v-2.7h-2.6v-1.1h2.6v-1.4h1.2v1.4h4.7v-1.4zm-6.7 8.4h3.6c0-.4 0-.9 0-1.4h-3.6zm1.9-4.7h4.7v-1.2h-4.7zm6.7 3.3h-3.7v1.4h3.7z" fill="#fbfafc"/><path d="m384.7 21.4h1.3v2.2h2.8v-2.2h1.3v2.2h4.1v9.1h1.7v1.3h-16.9v-1.3h1.7v-9.1h4.1v-2.2zm.3 13.2.7 1.2c-1.8.9-3.8 1.9-6 2.9-.2-.4-.5-.8-.8-1.3 2.4-1 4.4-2 6.1-2.8zm-3.1-6.5h2.8v-3.2h-2.8zm0 4.6h2.8v-3.3h-2.8zm4.1-4.6h2.8v-3.2h-2.8zm0 4.6h2.8v-3.3h-2.8zm3.6 1.9c2.1.9 4.1 1.8 6.1 2.7l-.7 1.3c-2.2-1.1-4.2-2-6.1-2.9zm3.3-9.7h-2.8v3.2h2.8zm-2.8 7.8h2.8v-3.3h-2.8z" fill="#fbfafc"/></svg>