<svg enable-background="new 0 0 400 400" viewBox="0 0 400 400" xmlns="http://www.w3.org/2000/svg"><g fill="#fcfafa"><path d="m342.2 3.2-6.3 9.2h6.1v1.2h-8.2v-.5l6.2-9.1h-5.7v-1.2h7.8v.4z"/><path d="m344 13.7v-10.9h3.1c1.6 0 3 .5 4.1 1.4 1.1 1 1.6 2.2 1.6 3.9s-.5 3-1.6 4-2.5 1.5-4.2 1.5h-3zm1.4-9.6v8.4h1.6c1.4 0 2.5-.4 3.2-1.1.8-.8 1.2-1.8 1.2-3.2s-.4-2.4-1.2-3.1-1.8-1-3.1-1z"/><path d="m356.3 2.8v10.9h-1.4v-10.9z"/><path d="m366.6 13.2c-.8.4-1.8.6-3 .6-1.6 0-2.8-.5-3.7-1.5s-1.4-2.3-1.4-3.9c0-1.7.5-3.2 1.6-4.2s2.4-1.6 4-1.6c1 0 1.9.1 2.6.4v1.5c-.8-.4-1.6-.6-2.6-.6-1.2 0-2.2.4-3 1.2s-1.1 1.9-1.1 3.3c0 1.3.4 2.3 1.1 3.1s1.6 1.1 2.8 1.1c1.1 0 2-.2 2.8-.7v1.3z"/><path d="m368.2 13c0-.3.1-.5.3-.6.2-.2.4-.3.6-.3.3 0 .5.1.7.3s.3.4.3.6-.1.5-.3.6c-.2.2-.4.3-.7.3s-.5-.1-.6-.3c-.2-.2-.3-.4-.3-.6z"/><path d="m381.1 13.7h-1.7l-5.5-8.4c-.2-.2-.3-.5-.4-.7 0 .2.1.8.1 1.5v7.6h-1.4v-10.9h1.8l5.3 8.3c.3.4.4.6.4.8 0-.3-.1-.8-.1-1.6v-7.5h1.4v10.9z"/><path d="m389.7 13.7h-5.8v-10.9h5.6v1.2h-4.2v3.5h3.9v1.2h-3.9v3.7h4.4z"/><path d="m398.4 4.1h-3.1v9.6h-1.4v-9.6h-3.1v-1.3h7.7v1.3z"/></g><path d="m150.82 206.41c-1.78 0-3.56 0-5.34 0-21 0-42.01-.36-63 .16-9.73.24-19.4 2.32-29.12 3.3-1.83.18-4.2-.37-5.6-1.49-3.87-3.12-7.36-6.72-11-10.12.17-.48.34-.96.52-1.44h5.06c37.5 0 75-.11 112.5.12 5.27.03 9.21-1.15 12.59-5.24 1.86-2.26 4.55-3.83 7.99-6.64-15.9-10.61-30.31-20.32-44.89-29.76-1.12-.73-3.73.01-5.24.82-29.28 15.71-59.85 28.12-92.07 36.36-.93.24-1.89.4-2.9.61-2.77-3.84-1.35-5.47 2.51-6.9 26.22-9.72 52.02-20.37 75.36-36.11 1.9-1.28 3.71-2.71 6.25-4.57-19.75-8.41-38.76-16.51-57.89-24.66.97-3.75 2.91-4.17 6.22-3.03 18.84 6.51 37.78 12.72 56.58 19.31 2.8.98 4.65.83 6.71-1.05 10.8-9.82 21.63-19.59 32.06-29.04 5.16 5.15 11.09 11.08 16.02 16-10.62 6.19-22.14 12.92-33.66 19.64.16.49.32.98.47 1.47 6.15 2.19 12.55 3.87 18.38 6.72 6.65 3.24 13.17 7.02 19.05 11.49 5.65 4.29 6.23 10.53 3.8 17.19-.55 1.5-.19 3.88.68 5.25 4.2 6.57 8.73 12.94 13.56 19.98-25.84 5.77-46.62 20.24-68.04 35.34 4 2.65 7.49 4.97 11.83 7.85-10.9 5.92-9.68 15.66-8.62 25.99 21.6-5.26 43.12-10.49 65.11-15.84.51 1.61 1.02 3.24 1.66 5.29-13.23 4.63-26.04 9.13-38.86 13.59-8.16 2.84-16.29 5.77-24.52 8.35-3.17 1-3.94 2.68-3.89 5.8.22 15.49.29 30.99.28 46.49-.02 18.22-10.55 31.44-28.58 35.96-8.83-15.11-24.44-19.44-39.59-24.4-3.09-1.01-5.26-1.95-3.77-6.42 4.78.49 9.82 1.04 14.86 1.52 9.26.89 18.51 1.99 27.79 2.52 6.3.36 9.38-2.69 9.45-8.96.15-13.83.04-27.67.01-41.5 0-.62-.28-1.23-.73-3.07-23.89 8.86-47.46 17.59-71.87 26.64-3.83-6.48-8.43-14.26-12.75-21.56 26.47-6.19 52.67-12.52 79-18.31 5.47-1.2 6.82-3.47 6.49-8.63-.81-12.61-1.15-25.25-1.66-37.88-.03-.79.13-1.6.23-2.72 1.32.47 2.4.79 3.42 1.24 9.22 4 9.21 3.99 16.44-3.21 7.06-7.03 14.16-14.03 21.24-21.04-.17-.46-.35-.94-.53-1.41z" fill="#010102"/><path d="m111.07 72.15c-21.13-9.1-42-18.08-62.87-27.07 1.63-4.22 1.66-4.29 5.39-3.07 21.13 6.88 42.29 13.7 63.34 20.81 3.56 1.21 5.8.63 8.34-1.88 11.35-11.23 22.83-22.32 34.66-33.85 5.91 5.47 12.21 11.29 18.22 16.85-13.11 8.37-26.13 16.69-39.77 25.4 10.03 4.5 19.2 8.32 28.1 12.72 5.33 2.63 10.17 6.23 15.31 9.26 1.35.8 2.97 1.59 4.47 1.6 27.16.09 54.33.07 81.49.05.64 0 1.28-.18 2.27-.34-6.51-23.95-18.65-44.81-33.67-65.73 2.13-.39 4.05-1.41 5.1-.84 14.06 7.6 28.14 15.33 39.14 27.24 10.9 11.81 11.66 21.93 3.44 35.71-.65 1.09-1.27 2.2-2.28 3.96 15.69 0 30.62.06 45.55-.1 1.42-.02 2.99-1.25 4.2-2.27 6.09-5.17 12.07-10.45 18.57-16.1 8.34 9.26 16.59 18.42 25.72 28.56-2.93 0-4.68 0-6.43 0-49.49.03-98.99 0-148.48.19-6.11.02-12.28.92-18.3 2.05-3.16.59-5.26-.06-7.53-2.05-2.59-2.27-5.48-4.21-8.76-6.67.34 3.04.85 5.41.82 7.77-.11 6.66-4.45 9.88-10.65 7.49-3.66-1.41-6.97-3.81-10.32-5.96-12.16-7.8-24.26-15.71-36.41-23.53-3.51-2.26-6.43-2.04-10.18.68-19.08 13.85-40.96 21.84-63.17 28.99-4.89 1.58-9.84 3.04-14.84 4.22-1.59.37-3.43-.34-5.16-.56 1.31-1.27 2.4-3.09 3.97-3.71 21.2-8.49 41.74-18.23 60.55-31.33 3.14-2.19 6.16-4.54 9.21-6.84.24-.18.33-.55.96-1.65z" fill="#010102"/><path d="m211.31 239.8c6.09 3.6 11.72 7.1 17.52 10.28 1.93 1.06 4.31 1.83 6.49 1.84 25.33.13 50.66.16 75.98-.05 2.27-.02 4.99-1.37 6.71-2.96 3.64-3.36 6.76-7.29 10.27-11.19 7.61 6.65 14.97 13.09 22.66 19.82-1.15 1.01-1.97 2.11-3.06 2.63-7.01 3.35-8.2 8.98-8.05 16.28.47 22.99.15 45.99.27 68.98.03 5.63.58 11.26.9 17.15-6.75 3.15-13.47 6.29-20.96 9.8 0-10.28 0-19.94 0-29.96-29.54 0-58.43 0-88.05 0 0 6.19-.16 12.46.07 18.71.12 3.07-.73 4.82-3.7 6.05-5.79 2.38-11.4 5.19-17.05 7.8 0-45.13 0-89.84 0-135.18zm108.24 22.62c-29.27 0-58.26 0-87.15 0v69.23h87.15c0-23.23 0-46.12 0-69.23z" fill="#010102"/><path d="m212.06 201h5.3c27.79 0 55.57.07 83.36-.12 2.5-.02 5.41-1.23 7.4-2.81 4.93-3.9 9.45-8.34 14.38-12.79 9.26 8.33 18.38 16.53 28.67 25.79-2.93 0-4.61 0-6.28 0-27.45 0-54.91-.33-82.36.16-11.39.2-22.75 2.2-34.13 3.19-1.74.15-4.04-.12-5.25-1.16-4.03-3.45-7.68-7.34-11.47-11.07.12-.4.25-.8.38-1.19z" fill="#010102"/><path d="m207.98 145.83h5.28c29.63 0 59.26.06 88.89-.11 2.6-.01 5.5-1.04 7.73-2.44 6.61-4.15 12.96-8.72 19.81-13.4 7.22 8.12 14.44 16.24 22.71 25.54-3.06 0-4.77 0-6.48 0-26.3 0-52.61-.41-78.9.16-14.22.31-28.42 2.14-42.6 3.62-2.96.31-4.9-.07-6.91-2.28-3.12-3.44-6.61-6.55-9.94-9.8.14-.43.28-.86.41-1.29z" fill="#010102"/></svg>